<svg version="1.1" id="Layer_1" xmlns="http://www.w3.org/2000/svg" xmlns:xlink="http://www.w3.org/1999/xlink" x="0px" y="0px"
	 width="100%" viewBox="0 0 400 400" enable-background="new 0 0 400 400" xml:space="preserve">
<path fill="#000000" opacity="1.000000" stroke="none" 
	d="
M181.468658,401.000000 
	C171.354248,396.460693 161.897263,391.599487 153.546768,384.858307 
	C151.870972,383.505463 150.677094,384.205719 149.235382,385.472595 
	C145.000275,389.194031 129.968506,390.671570 124.975937,387.988892 
	C121.723991,386.241516 120.753273,382.997253 119.771141,379.796722 
	C117.730370,373.146362 113.609077,371.582977 107.841858,375.488159 
	C105.302444,377.207733 102.498123,378.129547 99.824211,376.958771 
	C92.614876,373.802094 86.935280,368.792847 83.520393,361.540802 
	C82.017548,358.349304 82.880470,355.462677 84.731094,352.601746 
	C88.151894,347.313446 86.809326,343.389374 81.079575,341.353333 
	C71.836494,338.068878 70.968353,336.863037 70.797729,326.932495 
	C70.757660,324.600311 70.738914,322.265533 70.798485,319.934235 
	C70.991829,312.367828 72.546227,310.500946 80.084320,308.653595 
	C84.952446,307.460571 87.230270,302.704407 84.817917,298.269867 
	C82.645538,294.276459 79.910423,290.374268 82.593910,285.715851 
	C86.062103,279.695221 90.585007,274.601990 97.273994,272.029358 
	C100.038666,270.966034 102.447067,272.646759 104.818405,273.830658 
	C111.151985,276.992798 116.226730,274.725037 117.890625,267.955475 
	C119.803917,260.171265 121.852051,258.443420 129.915024,257.987976 
	C132.407898,257.847168 134.912354,257.820831 137.409454,257.863190 
	C143.305252,257.963135 147.359131,260.107025 149.072739,266.455109 
	C150.844467,273.018616 156.054123,274.143250 160.508438,269.226074 
	C165.860367,263.318054 171.821655,257.857239 175.488373,250.593658 
	C178.950516,243.735336 180.686127,236.601730 178.952316,228.874649 
	C178.137283,225.242447 176.078781,223.819397 172.465057,224.502426 
	C161.920715,226.495392 151.260147,226.473831 140.600800,226.207901 
	C124.975723,225.818115 112.238777,232.241409 101.129189,242.635834 
	C101.007614,242.749588 100.878448,242.860611 100.780273,242.993210 
	C88.103447,260.119537 69.628052,255.232819 56.384537,248.182770 
	C51.674282,245.675323 47.509853,242.525925 41.662605,243.146210 
	C38.678555,243.462738 35.747444,241.774338 33.356441,240.042404 
	C11.290157,224.058487 3.954140,201.476273 17.552063,175.236084 
	C20.940540,168.697281 26.605726,165.929764 33.463329,165.860947 
	C41.081665,165.784470 47.355270,163.044647 52.958782,158.190826 
	C57.614792,154.157761 62.312420,150.172745 66.993958,146.169174 
	C69.033936,144.424606 70.067207,142.259445 69.689354,139.548157 
	C67.525536,124.021553 74.047501,112.283562 85.236641,102.153282 
	C94.246880,93.995689 103.128586,85.884468 113.252663,78.952286 
	C121.409317,73.367264 127.024193,64.601494 133.747269,57.226810 
	C149.229492,40.244003 164.282242,22.857470 180.717636,6.763335 
	C185.389282,2.188682 188.869583,1.676459 194.723740,4.463264 
	C199.206009,6.597005 202.759674,9.737856 205.231369,14.098527 
	C207.718536,18.486513 208.057602,22.789209 205.580597,27.373981 
	C201.150436,35.573917 196.891846,43.867363 192.637924,52.160900 
	C191.919006,53.562515 190.691559,54.860226 191.125626,57.363747 
	C197.813522,52.834263 204.252960,48.536095 210.627365,44.143513 
	C226.671890,33.087292 242.649506,21.933558 258.730408,10.930676 
	C266.384277,5.693733 272.392090,6.571340 278.506958,13.534922 
	C282.322632,17.880232 285.001678,22.755487 285.373566,28.695816 
	C285.682983,33.638641 284.004395,37.639896 280.708862,41.390682 
	C267.193024,56.773727 252.984680,71.569664 240.771011,88.070023 
	C239.368912,89.964249 237.985641,91.858040 237.502762,94.182243 
	C236.958008,96.804298 237.334686,99.016228 240.135620,100.466095 
	C243.072937,101.986557 245.791016,103.930573 248.603378,105.688530 
	C248.785339,105.467033 249.129181,105.164558 249.084244,105.086777 
	C242.686432,94.016937 246.911728,90.787773 255.406250,81.402336 
	C256.292175,80.423470 257.439178,79.686272 258.407135,78.775444 
	C266.804840,70.873344 268.623322,70.758636 278.006927,77.592690 
	C281.816589,80.367249 290.729919,77.702171 291.872498,73.037224 
	C295.321960,58.953732 298.638611,57.820839 314.374023,57.918213 
	C325.827393,57.989090 329.256531,61.007057 332.029327,72.197655 
	C333.359589,77.566399 341.403137,80.758293 346.095062,77.799385 
	C349.186432,75.849869 352.123077,73.447289 355.894196,73.029594 
	C363.579010,72.178391 379.710846,90.816544 377.815216,98.290291 
	C377.193878,100.739922 375.755981,102.797363 374.364777,104.893814 
	C370.842346,110.201820 374.256805,118.700821 380.434814,120.244896 
	C392.416748,123.239571 394.203278,125.525581 394.356598,138.080627 
	C394.374908,139.580109 394.367676,141.080032 394.358643,142.579666 
	C394.285339,154.753281 392.712311,156.877335 381.244354,160.301056 
	C374.352478,162.358597 372.175873,168.697189 376.372223,174.489304 
	C382.524536,182.981186 382.527008,185.209503 376.195251,193.434036 
	C374.267853,195.937576 372.311249,198.439957 370.150757,200.738678 
	C363.485229,207.830780 360.510284,208.443878 351.846375,203.534454 
	C347.930939,201.315750 345.121033,201.849228 342.079102,204.723740 
	C340.397949,206.312317 340.332123,208.161026 340.281281,210.185287 
	C340.156311,215.159485 339.386139,219.852219 334.466949,222.617676 
	C331.886414,224.068390 332.764709,226.229095 333.404175,228.324554 
	C338.375031,244.614120 341.896179,261.177948 342.353027,278.262177 
	C343.011078,302.870819 336.109192,325.356506 322.075531,345.437347 
	C303.869141,371.489075 279.870789,390.041504 249.264648,399.565369 
	C248.643600,399.758636 248.100739,400.203247 247.260712,400.765289 
	C225.312439,401.000000 203.624878,401.000000 181.468658,401.000000 
M208.520721,61.078796 
	C201.523285,65.894669 194.385727,70.522385 187.577957,75.592911 
	C183.080322,78.942833 178.409866,80.724228 172.771530,80.318947 
	C156.016327,79.114571 139.962143,82.003510 124.543777,88.704582 
	C119.483864,90.903702 114.278023,92.859940 110.180573,96.630875 
	C102.581543,103.624367 95.125694,110.777321 87.735657,117.992348 
	C84.140869,121.501984 81.734703,125.985451 82.412384,130.991760 
	C84.181633,144.061890 79.104736,153.611313 68.465614,160.713287 
	C67.780014,161.170959 67.241104,161.842529 66.600098,162.373749 
	C56.947605,170.372803 47.968510,179.722260 33.690723,178.193832 
	C31.474297,177.956573 29.566591,178.956284 28.163568,180.963593 
	C20.310207,192.199509 21.780151,210.302994 31.452953,220.295319 
	C32.601021,221.481293 33.743736,223.009628 35.635761,222.521057 
	C38.014805,221.906723 36.937080,219.825333 37.048447,218.306030 
	C37.225449,215.891327 37.494957,213.219574 40.318901,212.824631 
	C43.237629,212.416428 43.410862,215.229309 44.017029,217.249207 
	C45.725212,222.941299 48.280571,224.121017 53.615280,221.605331 
	C54.664532,221.110550 55.756897,220.583176 56.615044,219.827469 
	C61.795471,215.265381 66.526581,214.848892 72.517418,219.283615 
	C80.014610,224.833466 81.339714,224.074173 81.571053,214.481934 
	C81.843956,203.166138 87.314529,197.141357 97.826477,193.493530 
	C115.632835,187.314407 134.037384,184.822571 152.563034,182.871201 
	C159.863632,182.102188 164.562302,179.207779 167.025391,172.123047 
	C168.986893,166.481049 171.733109,161.106827 174.226273,155.657333 
	C175.136673,153.667389 176.247925,151.639618 179.041718,152.271805 
	C181.514816,152.831436 183.196793,154.364777 183.901245,156.812042 
	C184.408249,158.573318 183.617981,160.096558 182.639053,161.478149 
	C178.080704,167.911530 175.002106,175.081268 171.893036,182.277542 
	C169.047989,188.862656 164.566238,193.004303 156.669678,194.105988 
	C148.822586,195.200760 141.247467,193.023560 133.449692,194.127762 
	C120.815544,195.916824 108.655907,199.035995 97.029839,204.230072 
	C92.444328,206.278732 89.864471,209.782791 89.130714,214.926025 
	C88.356453,220.353119 87.057487,225.711212 85.839920,231.065842 
	C85.447945,232.789688 84.985062,234.398682 86.732986,235.530823 
	C88.528740,236.693909 90.202652,236.217041 91.737534,234.844147 
	C93.227409,233.511536 94.818298,232.290558 96.289688,230.938766 
	C104.802467,223.117905 114.445877,217.091110 125.916542,215.236343 
	C137.317841,213.392776 148.281738,210.544052 158.774292,205.730194 
	C161.823547,204.331223 164.860809,205.056290 166.785736,207.860352 
	C168.866531,210.891449 171.651459,211.450165 174.654755,210.394806 
	C186.003265,206.406860 195.825974,200.068481 203.515121,190.688705 
	C204.344650,189.676804 205.200455,188.454407 205.425217,187.217194 
	C206.696548,180.219696 210.545654,173.756119 209.706955,166.313370 
	C209.514923,164.609268 209.980331,162.916687 211.773468,162.121338 
	C213.801575,161.221771 215.495987,162.317688 216.679916,163.666321 
	C219.263824,166.609741 220.463455,170.217545 220.974640,174.509674 
	C218.013443,174.576691 217.069458,176.236465 217.082932,178.939377 
	C217.093643,181.085068 216.626587,183.241684 216.282562,185.379120 
	C214.639130,195.589569 211.153122,205.353928 201.982315,210.661133 
	C194.113052,215.215073 191.976730,221.013840 193.109589,229.167007 
	C194.368469,238.227310 194.171539,246.718857 187.910706,254.576340 
	C183.697144,259.864471 180.563232,266.048218 175.885086,271.091370 
	C162.763992,285.236176 150.922104,300.253906 145.235886,319.099915 
	C141.001465,333.134125 142.109451,346.079071 154.055099,356.423309 
	C166.944427,367.584747 181.696579,374.681946 198.508316,377.761108 
	C214.591965,380.706848 229.753738,376.214203 244.551270,371.506226 
	C267.394989,364.238281 285.152496,349.066681 300.823822,331.369202 
	C314.788513,315.598999 324.386902,297.566437 328.876190,276.882263 
	C329.560822,273.727875 329.837555,270.646027 329.427826,267.480499 
	C325.465759,236.871689 315.673920,208.218735 300.468872,181.395325 
	C299.541565,179.759445 298.952362,177.663452 296.591736,177.240356 
	C294.559814,179.409134 294.429047,182.476593 292.488068,184.673935 
	C286.526123,191.423447 278.874146,196.942459 276.346802,206.278137 
	C276.258667,206.603714 275.621552,206.780655 274.982880,207.193146 
	C274.145050,203.576340 274.870972,200.194672 275.988007,197.273834 
	C278.381958,191.014023 279.501160,183.789062 285.652496,179.713989 
	C291.101501,176.104218 293.228058,168.845016 289.484711,163.535522 
	C274.603638,142.428391 255.775101,125.435272 234.413986,111.108185 
	C231.961121,109.463028 230.057404,109.560760 228.744858,112.325294 
	C227.992020,113.910980 227.324509,115.348038 225.187363,115.130409 
	C222.938126,114.901382 221.592667,113.601135 220.724930,111.631447 
	C219.438736,108.711975 219.787064,105.743256 220.536224,102.806137 
	C221.497925,99.035675 221.287750,95.545189 220.247314,91.642944 
	C217.927979,82.944061 214.660965,74.015091 223.194519,66.073685 
	C225.861313,63.591957 225.189072,59.391666 221.879700,56.284321 
	C218.590698,53.196117 216.475281,55.733761 214.056885,57.275436 
	C212.372360,58.349281 210.767151,59.547531 208.520721,61.078796 
M321.911926,77.493607 
	C320.632874,69.283798 317.038116,69.524223 309.816040,68.446266 
	C303.935913,67.568596 302.826111,72.278534 302.458008,76.397987 
	C301.892670,82.724998 298.527649,85.847328 292.687653,87.035004 
	C291.881165,87.199013 291.103455,87.546204 290.339722,87.872452 
	C284.533508,90.352707 278.847015,94.997162 272.881073,88.103188 
	C270.310608,91.361015 271.545135,95.788918 267.776215,97.609154 
	C263.391632,99.726715 260.646240,102.610672 263.585876,107.833542 
	C264.219116,108.958641 263.516693,110.099174 263.035767,111.159615 
	C261.048706,115.541077 263.786072,118.452423 266.830536,120.284561 
	C270.216705,122.322319 273.704102,122.004509 275.841156,117.542549 
	C280.793579,107.202301 290.498779,102.010468 299.610016,96.226158 
	C300.476898,95.675819 301.451385,95.445984 302.475891,95.797752 
	C307.839325,97.639282 313.367615,96.332855 318.810272,96.657486 
	C320.125580,96.735939 321.592224,96.438530 322.734741,96.919106 
	C334.608887,101.913467 345.253571,108.399368 351.243866,120.567490 
	C352.553284,123.227303 353.914337,126.657036 356.226807,127.864449 
	C361.255829,130.490265 360.288330,133.471283 358.333923,137.211594 
	C357.810944,138.212555 357.340057,139.415802 357.378540,140.507385 
	C357.687500,149.272705 354.927002,157.203110 351.156403,164.930130 
	C349.713959,167.886047 348.905823,171.101624 352.388672,173.353714 
	C354.437622,174.678604 360.960327,172.363525 361.942749,169.788040 
	C364.451202,163.212112 366.556091,156.483261 369.006317,149.883835 
	C371.282928,143.751938 367.812500,136.025879 376.053345,130.895142 
	C368.192291,129.860123 365.497070,125.702446 364.335419,120.009239 
	C364.013184,118.429909 363.212616,116.787514 362.184875,115.542809 
	C359.063354,111.762321 359.110504,108.231728 362.035950,104.326485 
	C365.276062,100.001129 363.308319,94.753403 362.262787,90.721153 
	C360.744720,84.866478 355.283661,84.267326 349.263885,88.497559 
	C345.292053,91.288643 341.894196,93.225609 337.299957,89.486488 
	C335.214325,87.789047 332.197266,86.997368 329.470245,86.380524 
	C324.963348,85.361061 322.492584,82.846130 321.911926,77.493607 
M229.025192,54.789642 
	C230.020950,57.427204 230.874924,60.071362 231.468246,62.867516 
	C232.573639,68.076904 237.535782,69.750282 241.286118,66.085518 
	C247.830582,59.690372 254.776321,53.582115 259.977997,45.992706 
	C262.870270,41.772797 266.874176,37.439873 263.421844,31.476686 
	C262.909119,30.591057 263.793610,29.606516 264.474152,28.841211 
	C265.822845,27.324541 268.373505,26.107067 266.081696,23.549326 
	C263.631927,20.815281 261.776733,23.412460 260.097351,24.584579 
	C250.127640,31.542812 240.325836,38.742123 230.337540,45.672974 
	C226.795441,48.130821 225.626968,50.599804 229.025192,54.789642 
M312.631775,154.594696 
	C314.093140,154.319244 315.612030,154.213058 317.006104,153.739456 
	C323.557983,151.513626 326.891754,145.246857 325.129700,138.659241 
	C323.374268,132.096436 316.619537,127.430573 310.478058,128.538589 
	C303.749512,129.752518 299.618744,135.201065 300.121704,142.198761 
	C300.593018,148.755676 303.813385,152.134506 312.631775,154.594696 
M128.628876,279.188507 
	C127.267937,276.558258 126.491837,278.906952 125.374023,279.491638 
	C118.782196,282.939575 112.620293,287.676666 104.333450,286.898315 
	C104.843857,288.957031 103.814850,290.364777 102.109039,291.732147 
	C100.204338,293.258942 97.486847,294.824799 97.456024,297.304688 
	C97.401306,301.706757 95.303589,305.236267 93.884026,309.098358 
	C90.621605,317.974121 91.584717,320.572845 99.156898,323.955170 
	C99.556503,322.000305 100.015503,320.082428 100.334335,318.141541 
	C102.296616,306.196259 108.793594,297.283325 119.094963,291.337311 
	C123.887886,288.570801 126.489861,284.506226 128.628876,279.188507 
M149.890884,57.875076 
	C149.427902,58.680725 148.183426,59.008789 148.393509,60.127174 
	C151.878464,62.127312 154.575943,61.347523 157.079666,58.333969 
	C159.639771,55.252548 162.901260,53.465782 167.200134,54.450394 
	C169.789612,55.043491 171.184479,53.515167 172.075287,51.254681 
	C173.165787,48.487366 172.965332,45.759193 172.269531,42.943348 
	C171.856003,41.269913 172.482895,39.323765 169.870163,38.693905 
	C167.623444,38.152279 166.450851,39.330860 165.129333,40.607113 
	C159.739502,45.812267 154.901428,51.505089 149.890884,57.875076 
M301.934753,119.511192 
	C308.729156,121.734131 312.261536,114.472992 318.567322,114.332436 
	C317.039551,110.622002 314.706268,108.681236 311.570465,107.595665 
	C306.121613,114.332695 306.111450,114.358597 298.239227,111.273224 
	C296.017548,110.402466 294.898376,112.138557 293.427551,113.064125 
	C292.088593,113.906693 290.751038,115.131012 291.750000,116.697563 
	C294.014862,120.249367 292.437744,123.252510 290.451324,126.459320 
	C293.937103,128.432205 296.376923,128.181564 297.930450,124.546928 
	C298.712433,122.717369 299.327728,120.781776 301.934753,119.511192 
M132.401886,321.209625 
	C132.788422,318.036346 134.875397,315.121246 134.102890,311.722809 
	C128.678955,311.917358 124.097923,316.228546 123.331215,321.622589 
	C122.534386,327.228516 125.199707,331.881256 130.564362,333.758209 
	C131.100647,329.800140 131.627625,325.910706 132.401886,321.209625 
z"/>
<path fill="#000000" opacity="1.000000" stroke="none" 
	d="
M183.762527,328.797424 
	C180.811691,316.599670 183.637070,305.896362 190.365219,296.193634 
	C193.540359,291.614685 196.939545,287.361176 195.339325,280.810730 
	C200.481644,281.810699 201.992340,284.855835 202.238388,288.718933 
	C202.406799,291.363251 202.041672,294.037323 202.083542,296.695404 
	C202.111649,298.479736 202.955490,299.964508 204.771271,300.502777 
	C206.480347,301.009430 207.601883,299.841370 208.606293,298.712433 
	C212.136551,294.744629 213.346191,289.993286 212.986816,284.821014 
	C212.814453,282.340302 212.303268,279.883392 211.952621,277.414734 
	C210.083511,264.255646 219.789795,247.725861 232.073639,243.213577 
	C232.622589,243.011948 233.310181,243.187775 234.332794,243.187775 
	C233.884171,247.379288 231.653229,250.768280 230.938263,254.625977 
	C229.961700,259.895142 230.868393,264.624084 233.544830,268.971008 
	C236.760757,274.194153 240.976639,278.753143 243.266815,284.611176 
	C245.532578,290.406769 246.408005,296.407562 246.437515,302.512665 
	C249.606537,303.255798 250.446991,301.056030 251.166901,299.409668 
	C253.473114,294.135620 254.761032,288.678619 252.661224,282.958801 
	C252.099091,281.427612 251.261337,279.871002 252.709534,278.351257 
	C264.053497,283.894409 274.304657,304.987061 271.293304,321.835052 
	C267.967926,340.439972 251.626495,356.845062 235.416473,356.451141 
	C234.611130,354.084442 236.595154,353.313538 237.905609,352.219238 
	C247.047867,344.585114 248.157425,336.441010 241.197113,326.122742 
	C237.572128,329.181702 234.004074,333.042664 228.619064,329.987213 
	C224.870010,327.859985 223.107346,324.527435 222.683197,320.191223 
	C222.283630,316.106598 224.637543,312.539001 224.664841,307.783508 
	C215.818512,314.316528 207.083710,320.013336 206.229889,331.721832 
	C205.640564,339.803223 208.502869,346.358429 215.474121,350.935455 
	C217.017105,351.948486 219.787537,352.884735 218.725800,355.257599 
	C217.455994,358.095337 214.775391,356.731903 212.565002,356.075378 
	C198.516708,351.902649 188.816330,343.086578 183.762527,328.797424 
M228.797455,282.877747 
	C227.973267,280.903534 226.712448,279.242523 224.386703,279.562653 
	C221.751251,279.925415 221.995804,282.418274 221.603851,284.281616 
	C219.941452,292.184540 221.645279,298.669769 229.318268,302.741577 
	C231.051285,303.661255 232.562149,305.538727 234.645508,304.111267 
	C236.388535,302.917023 236.123627,300.810669 235.680832,299.051941 
	C235.199249,297.139130 234.653564,295.076324 233.521057,293.528809 
	C231.296890,290.489594 230.155029,287.069550 228.797455,282.877747 
z"/>
<path fill="#000000" opacity="1.000000" stroke="none" 
	d="
M113.414886,113.349510 
	C110.169426,119.723457 106.540497,125.644653 104.224724,132.247681 
	C102.633621,136.784409 102.795326,141.058868 105.421188,145.155716 
	C108.273972,149.606583 111.679916,150.162323 115.019714,146.071762 
	C121.562309,138.058472 128.336639,130.287155 136.041000,123.377586 
	C140.501495,119.377235 145.113510,115.543205 149.717407,111.706398 
	C152.165253,109.666405 154.958557,108.138191 157.961929,107.085686 
	C159.563446,106.524445 161.348373,106.364281 162.593826,107.842018 
	C163.800079,109.273239 163.056946,110.937752 162.062119,111.941635 
	C156.577393,117.476341 156.860596,124.020447 158.023926,130.993729 
	C158.474731,133.696075 157.712677,136.605911 157.467407,139.418091 
	C157.061539,144.071335 154.635986,146.882797 150.136993,148.433487 
	C140.216293,151.852936 130.196793,155.263626 119.901863,156.821716 
	C113.429733,157.801224 105.643318,158.243011 100.923889,151.552094 
	C96.090500,144.699646 94.852692,137.235550 99.111000,129.476303 
	C99.908279,128.023544 101.107170,126.540398 100.603836,124.835335 
	C98.666039,118.270958 103.560417,115.114670 107.218773,111.427887 
	C109.905586,108.720207 111.619614,111.112022 113.414886,113.349510 
M134.585144,136.038071 
	C132.949524,137.882080 130.764481,139.579788 132.360565,142.487259 
	C133.844147,145.189758 136.444595,144.903717 138.955490,144.744324 
	C146.685806,144.253632 149.563675,140.229324 148.893066,130.796631 
	C148.778061,129.179031 148.998367,127.298622 147.030884,126.560242 
	C145.374924,125.938782 144.151688,127.058876 143.059097,128.049103 
	C140.355530,130.499390 137.732056,133.038055 134.585144,136.038071 
z"/>
<path fill="#000000" opacity="1.000000" stroke="none" 
	d="
M47.376461,204.379608 
	C45.709320,206.126343 45.996758,210.195862 42.847736,208.873123 
	C40.044872,207.695816 42.116245,204.843216 42.427032,202.678833 
	C43.319229,196.465439 46.545685,192.282379 52.795734,190.888885 
	C54.882191,190.423676 57.211929,190.203156 58.000313,193.147522 
	C58.711033,195.801804 57.443745,197.266968 55.053753,197.969055 
	C51.684978,198.958694 49.272419,201.075043 47.376461,204.379608 
z"/>
<path fill="#000000" opacity="1.000000" stroke="none" 
	d="
M289.094055,260.326324 
	C290.717316,257.592285 291.957214,255.130463 291.403564,251.934357 
	C293.918701,251.686234 296.151031,251.048355 295.310059,254.793945 
	C294.908295,256.583374 295.121765,258.389160 295.621002,260.161316 
	C296.189697,262.180023 297.443237,264.714325 294.703522,265.735779 
	C291.840271,266.803345 290.276306,264.439423 289.123566,262.143738 
	C288.920593,261.739502 289.028717,261.179077 289.094055,260.326324 
z"/>
</svg>